<svg width="17" height="20" viewBox="0 0 17 20" fill="none" xmlns="http://www.w3.org/2000/svg">
<path d="M15.5752 7.0792C14.9682 7.45065 14.4654 7.97003 14.1139 8.58874C13.7624 9.20745 13.5736 9.90525 13.5652 10.6168C13.5676 11.4176 13.8048 12.2001 14.2476 12.8674C14.6903 13.5347 15.3191 14.0575 16.056 14.371C15.7655 15.3084 15.3355 16.1967 14.7805 17.0061C13.9864 18.1492 13.1561 19.2923 11.8927 19.2923C10.6293 19.2923 10.3044 18.5583 8.84838 18.5583C7.42838 18.5583 6.92318 19.3164 5.76838 19.3164C4.61358 19.3164 3.80728 18.2575 2.88078 16.958C1.65681 15.1375 0.984142 13.0026 0.943481 10.8093C0.943481 7.1993 3.28988 5.2863 5.60008 5.2863C6.82748 5.2863 7.85008 6.0925 8.62008 6.0925C9.35408 6.0925 10.4972 5.2382 11.893 5.2382C12.6106 5.21962 13.3219 5.37783 13.964 5.69887C14.6061 6.01991 15.1594 6.49394 15.5752 7.0792ZM8.71658 5.0336C8.63179 5.03334 8.5472 5.02531 8.46388 5.0096C8.44035 4.8988 8.42826 4.78587 8.42778 4.6726C8.46794 3.74134 8.82935 2.85273 9.45058 2.1578C10.1478 1.35691 11.1251 0.853193 12.182 0.75C12.2071 0.872718 12.2192 0.997743 12.2181 1.123C12.1951 2.07288 11.8468 2.9861 11.2314 3.71C10.9238 4.08955 10.5423 4.40261 10.11 4.63014C9.67764 4.85768 9.20358 4.99495 8.71658 5.0336Z" fill="black" fill-opacity="0.8"/>
</svg>
