<svg width="17" height="17" viewBox="0 0 17 17" fill="none" xmlns="http://www.w3.org/2000/svg">
<path d="M16.7293 14.9556L12.5538 10.8735C13.5507 9.57361 14.0175 7.94403 13.86 6.31349C13.7025 4.68295 12.9325 3.17281 11.7053 2.08772C10.4781 1.00264 8.885 0.423359 7.24745 0.46675C5.6099 0.510142 4.04974 1.17297 2.88172 2.32153C1.71369 3.47008 1.02473 5.01888 0.953824 6.65547C0.882917 8.29206 1.43534 9.89465 2.49965 11.1399C3.56395 12.3852 5.06094 13.1805 6.6886 13.3653C8.31626 13.5502 9.95346 13.1109 11.2699 12.136L15.4704 16.2426C15.5549 16.3253 15.6549 16.3905 15.7646 16.4345C15.8743 16.4785 15.9916 16.5005 16.1098 16.4992C16.228 16.4979 16.3448 16.4733 16.4535 16.4269C16.5622 16.3804 16.6607 16.313 16.7433 16.2285C16.826 16.144 16.8912 16.044 16.9352 15.9343C16.9792 15.8246 17.0012 15.7073 16.9999 15.5891C16.9986 15.4709 16.974 15.3542 16.9276 15.2455C16.8811 15.1367 16.8138 15.0383 16.7293 14.9556ZM2.19993 6.9539C2.20135 5.91675 2.5102 4.9033 3.08745 4.04163C3.6647 3.17996 4.48443 2.50875 5.44304 2.11283C6.40166 1.71692 7.45613 1.61406 8.47318 1.81728C9.49023 2.02049 10.4242 2.52064 11.1571 3.25452C11.89 3.9884 12.3888 4.92307 12.5907 5.9404C12.7925 6.95773 12.6882 8.01206 12.2909 8.97013C11.8937 9.9282 11.2214 10.747 10.3589 11.3231C9.49646 11.8991 8.48258 12.2066 7.44543 12.2066C6.05375 12.2041 4.71989 11.6497 3.7365 10.6649C2.75311 9.6802 2.20051 8.34558 2.19993 6.9539Z" fill="black" fill-opacity="0.8"/>
</svg>
