<svg width="16" height="19" viewBox="0 0 16 19" fill="none" xmlns="http://www.w3.org/2000/svg">
<path d="M12.9574 3.92679H11.8221C11.7317 2.97565 11.29 2.09235 10.5832 1.4495C9.87641 0.806639 8.95531 0.450409 7.99988 0.450409C7.04446 0.450409 6.12335 0.806639 5.41655 1.4495C4.70974 2.09235 4.26802 2.97565 4.17768 3.92679H3.04238C2.35308 3.92764 1.69225 4.20184 1.20484 4.68925C0.717429 5.17666 0.44323 5.83749 0.442383 6.52679V15.45C0.44323 16.1393 0.717429 16.8001 1.20484 17.2875C1.69225 17.7749 2.35308 18.0491 3.04238 18.05H12.9574C13.6467 18.0491 14.3075 17.7749 14.7949 17.2875C15.2823 16.8001 15.5565 16.1393 15.5574 15.45V6.52689C15.5566 5.83757 15.2824 5.17672 14.795 4.68929C14.3075 4.20185 13.6467 3.92764 12.9574 3.92679ZM7.99988 1.64999C8.63727 1.652 9.25272 1.88299 9.73403 2.30084C10.2153 2.7187 10.5305 3.2956 10.622 3.92639H5.37778C5.46929 3.2956 5.78442 2.7187 6.26573 2.30084C6.74705 1.88299 7.36249 1.652 7.99988 1.64999ZM14.3573 15.45C14.3569 15.8212 14.2093 16.1771 13.9468 16.4395C13.6844 16.702 13.3285 16.8496 12.9573 16.85H3.04238C2.67119 16.8496 2.31531 16.702 2.05284 16.4395C1.79037 16.1771 1.64275 15.8212 1.64238 15.45V6.52689C1.64275 6.1557 1.79037 5.79982 2.05284 5.53735C2.31531 5.27488 2.67119 5.12726 3.04238 5.12689H12.9574C13.3286 5.12726 13.6845 5.27488 13.9469 5.53735C14.2094 5.79982 14.357 6.1557 14.3574 6.52689L14.3573 15.45Z" fill="black" fill-opacity="0.8"/>
</svg>
